<?xml version="1.0" encoding="UTF-8" standalone="no"?>
<svg width="124px" height="23px" viewBox="0 0 124 23" version="1.1" xmlns="http://www.w3.org/2000/svg" xmlns:xlink="http://www.w3.org/1999/xlink">
    <!-- Generator: Sketch 48.2 (47327) - http://www.bohemiancoding.com/sketch -->
    <title>logo</title>
    <desc>Created with Sketch.</desc>
    <defs>
        <linearGradient x1="13.3335941%" y1="94.8240853%" x2="101.773239%" y2="40.4159292%" id="linearGradient-1">
            <stop stop-color="#186131" offset="0%"></stop>
            <stop stop-color="#449741" offset="14.78%"></stop>
            <stop stop-color="#5ABA47" offset="26.6%"></stop>
            <stop stop-color="#5ABA47" offset="46.31%"></stop>
            <stop stop-color="#6ABD45" offset="52.22%"></stop>
            <stop stop-color="#47B649" offset="58.13%"></stop>
            <stop stop-color="#007B7B" offset="75.37%"></stop>
            <stop stop-color="#00404B" offset="100%"></stop>
        </linearGradient>
        <linearGradient x1="39.8621011%" y1="60.2554222%" x2="56.786692%" y2="-34.2433015%" id="linearGradient-2">
            <stop stop-color="#00773C" offset="0%"></stop>
            <stop stop-color="#3BB649" offset="22.67%"></stop>
            <stop stop-color="#6ABD45" offset="54.19%"></stop>
            <stop stop-color="#8BC63F" offset="72.91%"></stop>
            <stop stop-color="#9ECC3B" offset="77.34%"></stop>
            <stop stop-color="#B3D335" offset="80.3%"></stop>
            <stop stop-color="#A7CF3F" offset="84.24%"></stop>
            <stop stop-color="#91C851" offset="100%"></stop>
        </linearGradient>
        <linearGradient x1="92.3600698%" y1="47.8005923%" x2="8.06620111%" y2="51.3045831%" id="linearGradient-3">
            <stop stop-color="#192652" offset="0%"></stop>
            <stop stop-color="#008C96" offset="100%"></stop>
        </linearGradient>
        <linearGradient x1="35.4638148%" y1="93.5653334%" x2="67.1485928%" y2="0.48779621%" id="linearGradient-4">
            <stop stop-color="#EE2424" offset="0%"></stop>
            <stop stop-color="#F14722" offset="10.18%"></stop>
            <stop stop-color="#F14722" offset="10.18%"></stop>
            <stop stop-color="#F14722" offset="10.18%"></stop>
            <stop stop-color="#F7911E" offset="31.33%"></stop>
            <stop stop-color="#F9A11B" offset="48.14%"></stop>
            <stop stop-color="#F8941C" offset="50.31%"></stop>
            <stop stop-color="#F8941C" offset="50.31%"></stop>
            <stop stop-color="#F8941C" offset="50.31%"></stop>
            <stop stop-color="#F47A20" offset="54.41%"></stop>
            <stop stop-color="#F15D22" offset="57.13%"></stop>
            <stop stop-color="#EF4023" offset="63.95%"></stop>
            <stop stop-color="#ED2024" offset="70.5%"></stop>
            <stop stop-color="#ED2024" offset="86.21%"></stop>
            <stop stop-color="#851619" offset="100%"></stop>
        </linearGradient>
        <linearGradient x1="17.0114454%" y1="92.4776263%" x2="80.2694696%" y2="12.60645%" id="linearGradient-5">
            <stop stop-color="#F15722" offset="0%"></stop>
            <stop stop-color="#F37121" offset="26.11%"></stop>
            <stop stop-color="#F58120" offset="37.19%"></stop>
            <stop stop-color="#E14F25" offset="42.16%"></stop>
            <stop stop-color="#D61F26" offset="49.05%"></stop>
            <stop stop-color="#550F0E" offset="100%"></stop>
        </linearGradient>
    </defs>
    <g id="CB-Logout-Page---test-for-development---big-screen" stroke="none" stroke-width="1" fill="none" fill-rule="evenodd" transform="translate(-112.000000, -11.000000)">
        <g id="Header">
            <g id="logo" transform="translate(112.000000, 11.000000)">
                <g id="Layer_1">
                    <g id="Page-1_1_">
                        <g id="Colourbox-Press-Page-part-1">
                            <g id="CB-logo---white-bg">
                                <g id="logo-black-_x28_1_x29_">
                                    <g id="colourboxLogo-svg">
                                        <g id="Page-1">
                                            <g id="Logo-to-svg">
                                                <g id="Group_3_">
                                                    <g id="colourboxLogo-text" transform="translate(0.000000, 6.310490)" fill="#FFFFFF">
                                                        <g id="Group">
                                                            <path d="M3.50904853,3.85648148 C3.15098235,4.53703704 2.97194926,5.34722222 2.93614265,6.28703704 L2.93614265,6.77314815 C2.93614265,6.93518519 2.93614265,7.09722222 2.97194926,7.25925926 C3.00775588,7.61574074 3.07936912,7.93981481 3.18678897,8.26388889 C3.29420882,8.58796296 3.47324191,8.87962963 3.72388823,9.13888889 C3.97453456,9.39814815 4.29679412,9.49537037 4.61905367,9.56018519 C4.94131323,9.625 5.29937941,9.65740741 5.65744559,9.65740741 L5.80067206,9.65740741 L9.56036691,9.625 L9.56036691,11.537037 L5.44260588,11.537037 C4.79808676,11.537037 4.15356765,11.4722222 3.54485515,11.375 C2.93614265,11.2777778 2.32743015,11.0185185 1.79033088,10.6296296 C1.14581176,10.1435185 0.680325735,9.56018519 0.429679412,8.87962963 C0.179033088,8.16666667 0.0358066176,7.4537037 0,6.74074074 L0,6.28703704 C0,6.15740741 0,5.99537037 0.0358066176,5.83333333 C0.143226471,4.18055556 0.644519117,2.94907407 1.53968456,2.1712963 C2.43485,1.39351852 3.75969485,1.00462963 5.51421912,1.00462963 L9.59617353,0.972222222 L9.59617353,2.94907407 L5.80067206,2.94907407 C4.65486029,3.01388889 3.8671147,3.17592593 3.50904853,3.85648148 L3.50904853,3.85648148 Z M22.3433294,11.5046296 L22.3433294,0.0324074074 L25.1362456,0.0324074074 L25.1362456,11.5046296 L22.3433294,11.5046296 Z M45.8682772,9.49537037 L43.4692338,9.49537037 C42.7889081,9.49537037 42.3592287,9.39814815 42.1085823,9.2037037 C41.8221294,9.00925926 41.7147095,8.58796296 41.7147095,7.97222222 L41.7147095,2.33333333 L38.8501801,2.33333333 L38.8501801,8.16666667 C38.8501801,9.46296296 39.2440529,10.337963 40.0676051,10.8240741 C40.8553507,11.2777778 41.6789029,11.5046296 43.361814,11.5046296 C43.3260073,11.5046296 45.8682772,11.7638889 45.8682772,9.49537037 L45.8682772,9.49537037 Z M45.8682772,2.33333333 L45.9040838,11.4722222 L48.697,11.4722222 L48.697,2.33333333 L45.8682772,2.33333333 Z M56.3238095,2.33333333 C57.7560742,2.33333333 58.6154331,2.65740741 58.8302728,3.24074074 C59.0451125,3.82407407 59.1525323,4.63425926 59.1525323,5.60648148 L59.1525323,6.18981481 L56.4312294,6.15740741 L56.4312294,5.76851852 C56.4312294,4.92592593 56.4312294,4.47222222 56.2163897,4.24537037 C56.00155,4.05092593 53.9605728,4.08333333 53.0296007,4.08333333 L52.7431478,4.08333333 L52.7431478,11.4722222 L50.0576515,11.4722222 L50.0576515,2.33333333 L56.3238095,2.33333333 L56.3238095,2.33333333 Z M70.5748434,5.37962963 C70.3958103,4.7962963 70.1093573,4.24537037 69.6438713,3.75925926 C69.106772,3.17592593 68.4622529,2.78703704 67.7461206,2.625 C67.0299882,2.46296296 66.2422426,2.36574074 65.4186904,2.33333333 L63.019647,2.33333333 L63.019647,0.0324074074 L60.2267309,0.0324074074 L60.2267309,11.5046296 L62.9480338,11.5046296 L62.9838404,4.34259259 L64.0580389,4.34259259 L64.0580389,4.375 C64.5951382,4.375 65.8125632,4.43981481 66.2422426,4.53703704 C66.671922,4.63425926 67.1732147,4.89351852 67.423861,5.34722222 C67.5670875,5.54166667 67.6745073,5.76851852 67.7461206,6.02777778 C67.8177338,6.25462963 67.8535404,6.51388889 67.8535404,6.77314815 L67.8535404,7.19444444 C67.8535404,7.32407407 67.8177338,7.48611111 67.8177338,7.61574074 C67.7103139,8.65277778 67.2448279,9.1712963 66.5286956,9.39814815 C65.7051434,9.65740741 64.5951382,9.625 63.7357794,9.59259259 C63.5209397,9.59259259 63.1270669,9.56018519 62.9838404,9.56018519 C62.9838404,11.8287037 65.5619169,11.5046296 65.9199831,11.5046296 C67.4954742,11.5046296 68.4622529,11.1157407 69.3574184,10.337963 C70.2525838,9.56018519 70.7180698,8.52314815 70.7896831,7.16203704 C70.8254897,6.5462963 70.7538764,5.96296296 70.5748434,5.37962963 L70.5748434,5.37962963 Z M81.6390882,10.5 C81.1019889,10.9537037 80.4574698,11.2777778 79.7055309,11.4722222 C78.9535919,11.6666667 78.0942331,11.6990741 77.3064875,11.6990741 C76.4829353,11.6990741 75.6593831,11.6990741 74.9074441,11.5046296 C74.1555051,11.3101852 73.510986,10.9861111 72.9738867,10.5648148 C72.4367875,10.1111111 72.0787213,9.49537037 71.7922684,8.87962963 C71.5058154,8.26388889 71.3625889,7.64814815 71.3625889,7 C71.3625889,6.35185185 71.5058154,5.73611111 71.7922684,5.12037037 C72.0787213,4.50462963 72.4009809,3.9212963 72.9380801,3.46759259 C73.4751794,3.0462963 74.1196985,2.72222222 74.8716375,2.49537037 C75.6235764,2.26851852 76.5187419,2.23611111 77.3064875,2.23611111 C78.0942331,2.23611111 78.9535919,2.23611111 79.7055309,2.46296296 C80.4574698,2.68981481 81.1019889,3.01388889 81.6390882,3.43518519 C82.1761875,3.88888889 82.5342536,4.50462963 82.8207066,5.12037037 C83.1071595,5.73611111 83.250386,6.35185185 83.250386,7 C83.250386,7.64814815 83.1071595,8.26388889 82.8207066,8.87962963 C82.5342536,9.46296296 82.2119941,10.0787037 81.6390882,10.5 L81.6390882,10.5 L81.6390882,10.5 Z M76.2322889,9.49537037 C76.3397088,9.52777778 76.4471287,9.56018519 76.5187419,9.59259259 C76.6261617,9.625 76.697775,9.625 76.8051948,9.65740741 C77.5213272,9.72222222 78.2016529,9.625 78.8103654,9.36574074 C79.4190779,9.07407407 79.8487573,8.68518519 80.063597,8.13425926 C80.1352103,7.93981481 80.2068235,7.74537037 80.2426301,7.51851852 C80.2784367,7.29166667 80.3142434,7.06481481 80.3142434,6.83796296 C80.2784367,6.35185185 80.1352103,5.86574074 79.8487573,5.44444444 C79.5623044,4.99074074 79.0968184,4.66666667 78.4881059,4.47222222 C78.3448794,4.43981481 78.2016529,4.40740741 78.0584264,4.375 C77.9152,4.34259259 77.7719735,4.34259259 77.628747,4.31018519 C76.9484213,4.27777778 76.3039022,4.375 75.6951897,4.66666667 C75.0864772,4.95833333 74.6926044,5.34722222 74.4777647,5.83333333 C74.4061514,6.02777778 74.3345382,6.22222222 74.2987316,6.41666667 C74.262925,6.61111111 74.262925,6.83796296 74.262925,7.03240741 C74.262925,7.55092593 74.4419581,8.06944444 74.728411,8.52314815 C75.0864772,8.97685185 75.5877698,9.30092593 76.2322889,9.49537037 L76.2322889,9.49537037 L76.2322889,9.49537037 L76.2322889,9.49537037 Z M36.3795235,10.5 C35.8424243,10.9537037 35.1979051,11.2777778 34.4459662,11.4722222 C33.6940272,11.6666667 32.8346684,11.6990741 32.0469228,11.6990741 C31.2233706,11.6990741 30.3998184,11.6990741 29.6478794,11.5046296 C28.8959404,11.3101852 28.2514213,10.9861111 27.714322,10.5648148 C27.1772228,10.1111111 26.8191566,9.49537037 26.5327037,8.87962963 C26.2462507,8.26388889 26.1030243,7.64814815 26.1030243,7 C26.1030243,6.35185185 26.2462507,5.73611111 26.5327037,5.12037037 C26.8191566,4.50462963 27.1414162,3.9212963 27.6785154,3.46759259 C28.2156147,3.0462963 28.8601338,2.72222222 29.6120728,2.49537037 C30.3640118,2.26851852 31.2591772,2.23611111 32.0469228,2.23611111 C32.8346684,2.23611111 33.6940272,2.23611111 34.4459662,2.46296296 C35.1979051,2.68981481 35.8424243,3.01388889 36.3795235,3.43518519 C36.9166228,3.88888889 37.274689,4.50462963 37.5611419,5.12037037 C37.8475948,5.73611111 37.9908213,6.35185185 37.9908213,7 C37.9908213,7.64814815 37.8475948,8.26388889 37.5611419,8.87962963 C37.274689,9.49537037 36.9166228,10.0787037 36.3795235,10.5 L36.3795235,10.5 L36.3795235,10.5 Z M30.9727243,9.49537037 C31.0801441,9.52777778 31.187564,9.56018519 31.2591772,9.59259259 C31.366597,9.625 31.4382103,9.625 31.5456301,9.65740741 C32.2617625,9.72222222 32.9420882,9.625 33.5508007,9.36574074 C34.1595132,9.07407407 34.5891926,8.68518519 34.8040323,8.13425926 C34.8756456,7.93981481 34.9472588,7.74537037 34.9830654,7.51851852 C35.018872,7.29166667 35.0546787,7.06481481 35.0546787,6.83796296 C35.018872,6.35185185 34.8756456,5.86574074 34.5891926,5.44444444 C34.3027397,4.99074074 33.8372537,4.66666667 33.2285412,4.47222222 C33.0853147,4.43981481 32.9420882,4.40740741 32.7988618,4.375 C32.6556353,4.34259259 32.5124088,4.34259259 32.3691823,4.31018519 C31.6888566,4.27777778 31.0443375,4.375 30.435625,4.66666667 C29.8269125,4.95833333 29.4330397,5.34722222 29.2182,5.83333333 C29.1465868,6.02777778 29.0749735,6.22222222 29.0391669,6.41666667 C29.0033603,6.61111111 29.0033603,6.83796296 29.0033603,7.03240741 C29.0033603,7.55092593 29.1823934,8.06944444 29.4688463,8.52314815 C29.8269125,8.97685185 30.3282051,9.30092593 30.9727243,9.49537037 L30.9727243,9.49537037 L30.9727243,9.49537037 L30.9727243,9.49537037 Z M19.9084794,10.5 C19.3713801,10.9537037 18.726861,11.2777778 17.9749221,11.4722222 C17.2229831,11.6666667 16.3636243,11.6990741 15.5758787,11.6990741 C14.7523265,11.6990741 13.9287743,11.6990741 13.1768353,11.5046296 C12.4248963,11.3101852 11.7803772,10.9861111 11.2432779,10.5648148 C10.7061787,10.1111111 10.3481125,9.49537037 10.0616596,8.87962963 C9.77520661,8.26388889 9.63198014,7.64814815 9.63198014,7 C9.63198014,6.35185185 9.77520661,5.73611111 10.0616596,5.12037037 C10.3481125,4.50462963 10.6703721,3.9212963 11.2074713,3.46759259 C11.7445706,3.0462963 12.3890897,2.72222222 13.1410287,2.49537037 C13.8929676,2.26851852 14.7881331,2.23611111 15.5758787,2.23611111 C16.3636243,2.23611111 17.2229831,2.23611111 17.9749221,2.46296296 C18.726861,2.68981481 19.3713801,3.01388889 19.9084794,3.43518519 C20.4455787,3.88888889 20.8036448,4.50462963 21.0900978,5.12037037 C21.3765507,5.73611111 21.5197772,6.35185185 21.5197772,7 C21.5197772,7.64814815 21.3765507,8.26388889 21.0900978,8.87962963 C20.8036448,9.49537037 20.4455787,10.0787037 19.9084794,10.5 L19.9084794,10.5 L19.9084794,10.5 Z M14.5016801,9.49537037 C14.6091,9.52777778 14.7165198,9.56018519 14.7881331,9.59259259 C14.8955529,9.625 14.9671662,9.625 15.074586,9.65740741 C15.7907184,9.72222222 16.4710441,9.625 17.0797566,9.36574074 C17.6884691,9.07407407 18.1181485,8.68518519 18.3329882,8.13425926 C18.4046015,7.93981481 18.4762147,7.74537037 18.5120213,7.51851852 C18.5478279,7.29166667 18.5836346,7.06481481 18.5836346,6.83796296 C18.5478279,6.35185185 18.4046015,5.86574074 18.1181485,5.44444444 C17.8316956,4.99074074 17.3662096,4.66666667 16.7574971,4.47222222 C16.6142706,4.43981481 16.4710441,4.40740741 16.3278176,4.375 C16.1845912,4.34259259 16.0413647,4.34259259 15.8981382,4.31018519 C15.2178125,4.27777778 14.5732934,4.375 13.9645809,4.66666667 C13.3558684,4.95833333 12.9619956,5.34722222 12.7471559,5.83333333 C12.6755426,6.02777778 12.6039294,6.22222222 12.5681228,6.41666667 C12.5323162,6.61111111 12.5323162,6.83796296 12.5323162,7.03240741 C12.5323162,7.55092593 12.7113493,8.06944444 12.9978022,8.52314815 C13.3558684,8.97685185 13.8213544,9.30092593 14.5016801,9.49537037 L14.5016801,9.49537037 L14.5016801,9.49537037 L14.5016801,9.49537037 Z" id="Shape"></path>
                                                            <polygon id="Shape_1_" points="85.2913632 2.33333333 87.5829867 5.12037037 89.9104169 2.33333333 93.1688191 2.33333333 89.2300911 6.96759259 93.0972059 11.5046296 89.8388036 11.5046296 87.5829867 8.84722222 85.3271698 11.5046296 82.0687676 11.5046296 85.9716889 6.93518519 81.9971544 2.33333333"></polygon>
                                                        </g>
                                                    </g>
                                                    <g id="Group-40" transform="translate(93.525180, 0.000000)">
                                                        <g id="bottom" transform="translate(0.336162, 0.167535)">
                                                            <g id="Group_1_">
                                                                <path d="M21.1259044,22.6527778 L7.08971029,20.7407407 C8.45036176,20.2222222 11.5297309,18.8935185 13.9287743,17.2731481 C16.292011,15.6527778 18.2971816,13.287037 19.0849272,12.25 C19.7652529,11.7962963 20.3739654,11.1805556 20.7678382,10.4675926 L23.131075,6.41666667 C23.7039809,7.48611111 24.7065662,9.68981481 25.3152787,12.4768519 C25.8881846,15.037037 25.3868919,18.9583333 25.0646323,21.0648148 C24.2410801,22.2314815 22.7013956,22.8796296 21.1259044,22.6527778 L21.1259044,22.6527778 Z" id="Shape_2_" fill="url(#linearGradient-1)"></path>
                                                                <path d="M13.9645809,17.3703704 C11.5655375,18.9907407 8.48616838,20.2546296 7.12551691,20.7731481 C7.08971029,20.7731481 7.01809706,20.7407407 7.01809706,20.7407407 C6.87487059,20.7083333 6.76745073,20.6435185 6.66003088,20.5462963 L0.0358066176,12.8981481 L0.322259559,13.0277778 C0.429679412,13.0925926 0.572905882,13.125 0.716132353,13.125 L15.4326522,13.3518519 C16.7933037,13.3842593 18.0823419,12.962963 19.1207338,12.2824074 C18.2971816,13.3194444 16.3278176,15.7175926 13.9645809,17.3703704 L13.9645809,17.3703704 Z" id="Shape_3_" fill="url(#linearGradient-2)"></path>
                                                                <path d="M25.4943118,20.287037 C25.3868919,20.5787037 25.2436654,20.837963 25.0646323,21.0648148 C25.3868919,18.9259259 25.8881846,15.037037 25.2794721,12.4768519 C24.7423728,9.68981481 23.6681743,7.51851852 23.131075,6.44907407 L26.8907698,0.0324074074 L29.8985257,8.84722222 C29.9343323,8.94444444 29.9343323,9.00925926 29.8985257,9.10648148 L25.4943118,20.287037 L25.4943118,20.287037 Z" id="Shape_4_" fill="url(#linearGradient-3)"></path>
                                                            </g>
                                                        </g>
                                                        <g id="up" transform="translate(1.385927, 0.000000)">
                                                            <g id="Group_2_">
                                                                <path d="M24.4559198,0.810185185 L24.1336603,1.3287037 C22.7730088,1.26388889 17.6526625,1.26388889 12.8187691,4.73148148 C8.84423456,7.58333333 7.77003603,11.2777778 7.5193897,12.5092593 L0.501292647,12.5092593 C0.107419853,12.5092593 -0.107419853,12.087963 0.179033088,11.8287037 L8.80842794,3.0787037 C9.27391397,2.59259259 9.91843308,2.26851852 10.5987588,2.1712963 L23.9188206,0.0972222222 C24.3485,9.57567359e-16 24.6707596,0.421296296 24.4559198,0.810185185 L24.4559198,0.810185185 Z" id="Shape_5_" fill="url(#linearGradient-4)"></path>
                                                                <path d="M24.1336603,1.3287037 L19.2281537,9.10648148 L14.6449066,9.30092593 C14.0003875,9.33333333 13.391675,9.625 13.0336088,10.1435185 L11.3148912,12.5092593 L7.5193897,12.5092593 C7.77003603,11.2777778 8.84423456,7.58333333 12.8187691,4.73148148 C17.6526625,1.26388889 22.7730088,1.26388889 24.1336603,1.3287037 L24.1336603,1.3287037 Z" id="Shape_6_" fill="url(#linearGradient-5)"></path>
                                                            </g>
                                                        </g>
                                                    </g>
                                                </g>
                                            </g>
                                        </g>
                                    </g>
                                </g>
                            </g>
                        </g>
                    </g>
                </g>
            </g>
        </g>
    </g>
</svg>