<?xml version="1.0" encoding="UTF-8" standalone="no"?>
<svg width="50px" height="50px" viewBox="0 0 50 50" version="1.1" xmlns="http://www.w3.org/2000/svg" xmlns:xlink="http://www.w3.org/1999/xlink">
    <!-- Generator: Sketch 48.2 (47327) - http://www.bohemiancoding.com/sketch -->
    <title>Pinterest</title>
    <desc>Created with Sketch.</desc>
    <defs></defs>
    <g id="CB-Logout-Page---test-for-development---big-screen" stroke="none" stroke-width="1" fill="none" fill-rule="evenodd" transform="translate(-1148.000000, -1217.000000)">
        <g id="Pinterest" transform="translate(1148.000000, 1217.000000)">
            <circle id="Oval-2" fill="#BD081C" cx="25" cy="25" r="25"></circle>
            <g id="internet-facebook-media-social-communication-twitter-pinterest-icon" transform="translate(14.166667, 10.833333)" fill="#FFFFFF" fill-rule="nonzero">
                <g id="Layer_x0020_1" transform="translate(0.465088, 0.477659)">
                    <path d="M18.0930176,2.12230589 C19.8667914,3.42768929 21.1015869,5.30853164 21.4322021,7.7015413 L21.4323535,7.7015198 C21.5661143,8.66320171 21.5934505,9.63600231 21.5204172,10.5904101 C21.3456956,12.8731614 20.5978238,15.0612364 19.3598276,16.7540132 C18.1087265,18.4647169 16.3589487,19.6717561 14.1937815,19.9694556 C13.658154,20.0430722 13.0989536,20.0610034 12.5176944,20.0170354 L12.5165482,20.0170354 C11.2137803,19.9135766 10.4887101,19.4141275 9.63977818,18.8293866 C9.47515611,18.7160161 9.30562535,18.5992492 9.1284818,18.4832131 C8.79195043,20.1966272 8.40894139,21.8667462 7.82435155,23.3441396 C7.18121922,24.9694672 6.29549962,26.3608911 4.96536107,27.3222709 L4.57214574,27.6064816 L4.50417314,27.1265763 C3.91480425,22.964317 4.82506914,19.5845702 5.7096425,16.3001913 C6.01514116,15.1659278 6.31754533,14.0430524 6.54890825,12.9257599 C6.02595354,11.9851704 5.88836626,10.7565983 6.06737016,9.59528989 C6.19418883,8.77260783 6.47996355,7.97864903 6.90008257,7.34044455 C7.33324236,6.68243106 7.91145281,6.18616449 8.61090105,5.98294462 C9.15206377,5.8257138 9.75663774,5.84570904 10.4112764,6.10349617 L10.4112764,6.10463568 C12.5819002,6.96010582 11.8243178,9.32386432 11.0670833,11.6864196 C10.829103,12.4289063 10.5911244,13.1712855 10.4521071,13.8629718 C10.1732961,15.250056 10.3332687,16.3822953 11.9061312,16.6947578 L11.9061312,16.6958973 C12.7862056,16.8730373 13.5711458,16.708088 14.2479219,16.301734 C15.1793593,15.7425144 15.9166335,14.7261584 16.4256136,13.5066462 C16.9432033,12.2664512 17.2220802,10.8236189 17.2290437,9.43556806 C17.2382351,7.60459047 16.777198,5.87802797 15.7695265,4.8613825 C14.6360744,3.71849781 13.2408583,3.14697992 11.8058241,3.03577493 C10.4207448,2.92844601 8.99788347,3.24753041 7.73401628,3.89434148 C6.46816606,4.54216285 5.36347795,5.51685296 4.6170302,6.71946505 C3.81158952,8.01715204 3.42313127,9.58305255 3.70101213,11.2920851 C3.78466405,11.8078312 4.03414873,12.2168722 4.27377153,12.6097012 C4.80388384,13.4787821 5.29249529,14.2798567 4.3572072,15.9275381 L4.25086907,16.11487 L4.04022637,16.0686017 C2.56870659,15.7452607 1.57020683,15.0360773 0.931480027,14.0362391 C0.303138963,13.0526712 0.0339098368,11.7955925 0.0106829081,10.3548244 L0.0106829081,10.3479874 C0.0422145853,7.62718787 1.02661614,5.2199431 2.68138603,3.41474162 C4.34434624,1.60062044 6.68231377,0.395641901 9.40860771,0.0924995538 C9.67563225,0.062657335 9.94442925,0.0400821226 10.2145684,0.0246450359 C10.4783062,0.00959491856 10.7467571,0.00181188033 11.0192968,0.00118841157 C13.690769,-0.00478864243 16.1988744,0.728389639 18.0930273,2.12231107 L18.0930176,2.12230589 Z" id="Shape"></path>
                </g>
            </g>
        </g>
    </g>
</svg>